<?xml version="1.0" encoding="utf-8"?>
<!-- Generator: Adobe Illustrator 23.0.1, SVG Export Plug-In . SVG Version: 6.00 Build 0)  -->
<svg version="1.1" xmlns="http://www.w3.org/2000/svg" xmlns:xlink="http://www.w3.org/1999/xlink" x="0px" y="0px"
	 viewBox="0 0 385 312" style="enable-background:new 0 0 385 312;" xml:space="preserve">
<style type="text/css">
	.st0{fill:#96E2AF;stroke:#160606;stroke-width:6;stroke-miterlimit:10;}
	.st1{fill:url(#SVGID_1_);stroke:#070000;stroke-width:6;stroke-miterlimit:10;}
	.st2{fill:none;stroke:#000000;stroke-width:9;stroke-linecap:round;stroke-miterlimit:10;}
	.st3{fill:#15E80F;stroke:#000000;stroke-width:6;stroke-miterlimit:10;}
	.st4{fill:url(#SVGID_2_);stroke:#0A0101;stroke-width:6;stroke-miterlimit:10;}
	.st5{fill:url(#SVGID_3_);stroke:#0A0101;stroke-width:6;stroke-miterlimit:10;}
	.st6{fill:url(#SVGID_4_);stroke:#0A0101;stroke-width:6;stroke-miterlimit:10;}
</style>
<g id="Layer_1">
</g>
<g id="Layer_2">
	<path class="st0" d="M50.1,198l192.5-63.8c0,0,23-5.3,33.7,18.3c0,0,15.4-5.9,20.1,10.6c0,0,5.9,16.5-13,21.3l-173.6,48.4
		c0,0-19.2,5.5-34.2-2.4C63.1,224,55.4,217.5,50.1,198z"/>
	<radialGradient id="SVGID_1_" cx="245.6741" cy="170.206" r="35.9333" gradientUnits="userSpaceOnUse">
		<stop  offset="0.5503" style="stop-color:#002776"/>
		<stop  offset="0.7094" style="stop-color:#002778"/>
		<stop  offset="0.7667" style="stop-color:#00277F"/>
		<stop  offset="0.8075" style="stop-color:#00278A"/>
		<stop  offset="0.8406" style="stop-color:#00279B"/>
		<stop  offset="0.8688" style="stop-color:#0027B1"/>
		<stop  offset="0.8934" style="stop-color:#0027CC"/>
		<stop  offset="0.9011" style="stop-color:#0027D6"/>
	</radialGradient>
	<path class="st1" d="M249.2,157.6c0.3,1.4,1.8,2.2,3.1,1.8c0,0,24-6.7,23.9-6.9c-10.2-22-34.2-17.7-34.2-17.7L249.2,157.6z"/>
	<circle cx="118.6" cy="200.4" r="4.7"/>
	<circle cx="139.8" cy="194.5" r="4.7"/>
	<circle cx="159.9" cy="188.6" r="4.7"/>
	<circle cx="181.2" cy="182.7" r="4.7"/>
	<line class="st2" x1="66.5" y1="278.8" x2="104.5" y2="262.5"/>
	<line class="st2" x1="35.8" y1="270.5" x2="73.8" y2="254.2"/>
	<path class="st3" d="M134.1,82.2c0-12.1-10.9-21.8-24.2-21.8c-0.9,0-1.7,0-2.6,0.1c-0.9-11.3-11.4-20.2-24.2-20.2
		c-12.8,0-23.3,9-24.2,20.3c-1.2-0.1-2.3-0.2-3.5-0.2c-13.9,0-25.2,9.8-25.2,21.8c0,12.1,11.3,21.8,25.2,21.8c0.5,0,1.1,0,1.6,0
		c0.3,0,0.5,0,0.8,0h53.7c0.5,0,1.1-0.1,1.6-0.2C125,102.4,134.1,93.2,134.1,82.2z"/>
	<path class="st3" d="M366.8,79.1c0-17.6-15.5-31.9-34.7-31.9c-1.2,0-2.5,0.1-3.7,0.2C327.1,31,312.1,18,293.8,18
		c-18.3,0-33.3,13.1-34.6,29.6c-1.7-0.2-3.3-0.3-5.1-0.3c-20,0-36.1,14.3-36.1,31.9c0,17.6,16.2,31.9,36.1,31.9c0.8,0,1.5,0,2.3-0.1
		c0.4,0,0.7,0.1,1.1,0.1h76.8c0.8,0,1.5-0.1,2.3-0.3C353.6,108.7,366.8,95.3,366.8,79.1z"/>
	<path class="st3" d="M352,266.7c0-12.9-12.5-23.3-27.9-23.3c-1,0-2,0-2.9,0.1c-1.1-12-13.1-21.5-27.8-21.5
		c-14.7,0-26.8,9.5-27.8,21.6c-1.3-0.1-2.7-0.2-4.1-0.2c-16,0-29,10.4-29,23.3c0,12.9,13,23.3,29,23.3c0.6,0,1.2,0,1.8,0
		c0.3,0,0.6,0,0.9,0h61.8c0.6,0,1.2-0.1,1.8-0.2C341.4,288.3,352,278.5,352,266.7z"/>
</g>
<g id="Layer_3">
	<linearGradient id="SVGID_2_" gradientUnits="userSpaceOnUse" x1="134.1981" y1="177.2747" x2="163.3326" y2="131.7133">
		<stop  offset="0.6844" style="stop-color:#009B3A"/>
		<stop  offset="0.725" style="stop-color:#039E3C"/>
		<stop  offset="0.7596" style="stop-color:#0EA641"/>
		<stop  offset="0.7919" style="stop-color:#1FB44A"/>
		<stop  offset="0.8228" style="stop-color:#38C856"/>
		<stop  offset="0.8229" style="stop-color:#38C856"/>
	</linearGradient>
	<path class="st4" d="M191.2,151.4l-42.5-24.8l-26,5.9c0,0-4.7,2.4,3.5,10.6c8.3,8.3,19.5,23,19.5,23L191.2,151.4z"/>
	<linearGradient id="SVGID_3_" gradientUnits="userSpaceOnUse" x1="122.8582" y1="197.1443" x2="204.7685" y2="244.7956">
		<stop  offset="0.6676" style="stop-color:#009B3A"/>
		<stop  offset="0.72" style="stop-color:#039D3B"/>
		<stop  offset="0.7583" style="stop-color:#0CA540"/>
		<stop  offset="0.7923" style="stop-color:#1CB248"/>
		<stop  offset="0.8234" style="stop-color:#33C453"/>
		<stop  offset="0.8296" style="stop-color:#38C856"/>
	</linearGradient>
	<path class="st5" d="M162.9,218.7l-5.9,42.5c0,0,1.2,3.5,5.9,2.4c4.7-1.2,20.1-5.9,20.1-5.9l31.3-52.6L162.9,218.7z"/>
	<linearGradient id="SVGID_4_" gradientUnits="userSpaceOnUse" x1="17.5294" y1="204.9366" x2="71.721" y2="166.3172">
		<stop  offset="0.595" style="stop-color:#009B3A"/>
		<stop  offset="0.7017" style="stop-color:#029D3B"/>
		<stop  offset="0.7401" style="stop-color:#09A23E"/>
		<stop  offset="0.7675" style="stop-color:#14AB44"/>
		<stop  offset="0.7895" style="stop-color:#25B94D"/>
		<stop  offset="0.8062" style="stop-color:#38C856"/>
	</linearGradient>
	<path class="st6" d="M39.9,165.6l9.9,31.2l25.4-8.2c0,0-9.1-36.5-34.4-24.9C40,164,39.6,164.8,39.9,165.6z"/>
</g>
</svg>
